<?xml version="1.0" encoding="UTF-8" standalone="no"?>
<!DOCTYPE svg PUBLIC "-//W3C//DTD SVG 1.1//EN"
 "http://www.w3.org/Graphics/SVG/1.1/DTD/svg11.dtd">
<!-- Generated by graphviz version 2.40.1 (20161225.0304)
 -->
<!-- Title: dependencies Pages: 1 -->
<svg width="504pt" height="284pt"
 viewBox="0.00 0.00 504.00 284.00" xmlns="http://www.w3.org/2000/svg" xmlns:xlink="http://www.w3.org/1999/xlink">
<g id="graph0" class="graph" transform="scale(1 1) rotate(0) translate(4 280)">
<title>dependencies</title>
<polygon fill="#ffffff" stroke="transparent" points="-4,4 -4,-280 500,-280 500,4 -4,4"/>
<text text-anchor="start" x="227.0091" y="-42.4" font-family="sans-serif" font-weight="bold" font-size="14.00" fill="#000000">Legend</text>
<polygon fill="#ffffb3" stroke="transparent" points="14,-10 14,-30 34,-30 34,-10 14,-10"/>
<text text-anchor="start" x="37.629" y="-15.4" font-family="sans-serif" font-size="14.00" fill="#000000"> &#160;Declarations</text>
<polygon fill="#8dd3c7" stroke="transparent" points="127,-10 127,-30 147,-30 147,-10 127,-10"/>
<text text-anchor="start" x="150.7251" y="-15.4" font-family="sans-serif" font-size="14.00" fill="#000000"> &#160;Module</text>
<polygon fill="#80b1d3" stroke="transparent" points="213,-10 213,-30 233,-30 233,-10 213,-10"/>
<text text-anchor="start" x="236.7812" y="-15.4" font-family="sans-serif" font-size="14.00" fill="#000000"> &#160;Bootstrap</text>
<polygon fill="#fdb462" stroke="transparent" points="310,-10 310,-30 330,-30 330,-10 310,-10"/>
<text text-anchor="start" x="333.6732" y="-15.4" font-family="sans-serif" font-size="14.00" fill="#000000"> &#160;Providers</text>
<polygon fill="#fb8072" stroke="transparent" points="406,-10 406,-30 426,-30 426,-10 406,-10"/>
<text text-anchor="start" x="429.7258" y="-15.4" font-family="sans-serif" font-size="14.00" fill="#000000"> &#160;Exports</text>
<g id="clust1" class="cluster">
<title>cluster_AdminModule</title>
<polygon fill="none" stroke="#000000" stroke-dasharray="1,5" points="103,-70 103,-268 393,-268 393,-70 103,-70"/>
</g>
<g id="clust2" class="cluster">
<title>cluster_AdminModule_declarations</title>
<polygon fill="none" stroke="#000000" points="114,-78 114,-130 382,-130 382,-78 114,-78"/>
</g>
<g id="clust6" class="cluster">
<title>cluster_AdminModule_exports</title>
<polygon fill="none" stroke="#000000" points="111,-208 111,-260 385,-260 385,-208 111,-208"/>
</g>
<!-- AdminComponent -->
<g id="node1" class="node">
<title>AdminComponent</title>
<polygon fill="#ffffb3" stroke="#000000" points="374.2204,-122 253.7796,-122 253.7796,-86 374.2204,-86 374.2204,-122"/>
<text text-anchor="middle" x="314" y="-99.8" font-family="Times,serif" font-size="14.00" fill="#000000">AdminComponent</text>
</g>
<!-- AdminModule -->
<g id="node3" class="node">
<title>AdminModule</title>
<polygon fill="#8dd3c7" stroke="#000000" points="228.4386,-187 225.4386,-191 204.4386,-191 201.4386,-187 129.5614,-187 129.5614,-151 228.4386,-151 228.4386,-187"/>
<text text-anchor="middle" x="179" y="-164.8" font-family="Times,serif" font-size="14.00" fill="#000000">AdminModule</text>
</g>
<!-- AdminComponent&#45;&gt;AdminModule -->
<g id="edge1" class="edge">
<title>AdminComponent&#45;&gt;AdminModule</title>
<path fill="none" stroke="#000000" d="M334.0367,-122.0225C334.0367,-139.3734 334.0367,-163 334.0367,-163 334.0367,-163 238.4808,-163 238.4808,-163"/>
<polygon fill="#000000" stroke="#000000" points="238.4809,-159.5001 228.4808,-163 238.4808,-166.5001 238.4809,-159.5001"/>
</g>
<!-- UsersComponent -->
<g id="node2" class="node">
<title>UsersComponent</title>
<polygon fill="#ffffb3" stroke="#000000" points="235.7036,-122 122.2964,-122 122.2964,-86 235.7036,-86 235.7036,-122"/>
<text text-anchor="middle" x="179" y="-99.8" font-family="Times,serif" font-size="14.00" fill="#000000">UsersComponent</text>
</g>
<!-- UsersComponent&#45;&gt;AdminModule -->
<g id="edge2" class="edge">
<title>UsersComponent&#45;&gt;AdminModule</title>
<path fill="none" stroke="#000000" d="M179,-122.1061C179,-122.1061 179,-140.991 179,-140.991"/>
<polygon fill="#000000" stroke="#000000" points="175.5001,-140.9909 179,-150.991 182.5001,-140.991 175.5001,-140.9909"/>
</g>
<!-- AdminComponent  -->
<g id="node4" class="node">
<title>AdminComponent </title>
<polygon fill="#fb8072" stroke="#000000" points="376.7205,-252 253.2795,-252 253.2795,-216 376.7205,-216 376.7205,-252"/>
<text text-anchor="middle" x="315" y="-229.8" font-family="Times,serif" font-size="14.00" fill="#000000">AdminComponent </text>
</g>
<!-- AdminModule&#45;&gt;AdminComponent  -->
<g id="edge3" class="edge">
<title>AdminModule&#45;&gt;AdminComponent </title>
<path fill="none" stroke="#000000" stroke-dasharray="5,2" d="M228.422,-175C259.581,-175 293.9633,-175 293.9633,-175 293.9633,-175 293.9633,-205.9775 293.9633,-205.9775"/>
<polygon fill="#000000" stroke="#000000" points="290.4634,-205.9774 293.9633,-215.9775 297.4634,-205.9775 290.4634,-205.9774"/>
</g>
<!-- UsersComponent  -->
<g id="node5" class="node">
<title>UsersComponent </title>
<polygon fill="#fb8072" stroke="#000000" points="235.2038,-252 118.7962,-252 118.7962,-216 235.2038,-216 235.2038,-252"/>
<text text-anchor="middle" x="177" y="-229.8" font-family="Times,serif" font-size="14.00" fill="#000000">UsersComponent </text>
</g>
<!-- AdminModule&#45;&gt;UsersComponent  -->
<g id="edge4" class="edge">
<title>AdminModule&#45;&gt;UsersComponent </title>
<path fill="none" stroke="#000000" stroke-dasharray="5,2" d="M179,-187.1061C179,-187.1061 179,-205.991 179,-205.991"/>
<polygon fill="#000000" stroke="#000000" points="175.5001,-205.9909 179,-215.991 182.5001,-205.991 175.5001,-205.9909"/>
</g>
</g>
</svg>
